<svg width="33" height="36" viewBox="0 0 33 36" fill="none" xmlns="http://www.w3.org/2000/svg">
<path d="M27.2375 16.7308H5.65413C3.95126 16.7308 2.5708 18.1113 2.5708 19.8141V30.6058C2.5708 32.3087 3.95126 33.6891 5.65413 33.6891H27.2375C28.9403 33.6891 30.3208 32.3087 30.3208 30.6058V19.8141C30.3208 18.1113 28.9403 16.7308 27.2375 16.7308Z" stroke="#FD58FF" stroke-width="4" stroke-linecap="round" stroke-linejoin="round"/>
<path d="M8.73731 16.7308V10.5641C8.73539 8.65253 9.44383 6.80841 10.7251 5.38977C12.0064 3.97113 13.769 3.07918 15.671 2.88707C17.5729 2.69495 19.4783 3.21639 21.0174 4.35014C22.5565 5.4839 23.6194 7.14909 23.9998 9.02245V16.7308" stroke="#FD58FF" stroke-width="4" stroke-linecap="round" stroke-linejoin="round"/>
</svg>
